<svg xmlns="http://www.w3.org/2000/svg" xmlns:xlink="http://www.w3.org/1999/xlink" width="500" zoomAndPan="magnify" viewBox="0 0 375 374.999991" height="500" preserveAspectRatio="xMidYMid meet" version="1.0"><defs><clipPath id="a2146cbcdc"><path d="M 47.746094 30.03125 L 180 30.03125 L 180 258 L 47.746094 258 Z M 47.746094 30.03125 " clip-rule="nonzero"/></clipPath><clipPath id="9eccf7c906"><path d="M 195 30.03125 L 327.496094 30.03125 L 327.496094 258 L 195 258 Z M 195 30.03125 " clip-rule="nonzero"/></clipPath></defs><g clip-path="url(#a2146cbcdc)"><path fill="#fca311" d="M 179.285156 92.832031 L 179.285156 92.644531 L 72.949219 153.96875 L 72.949219 120.582031 L 154.125 73.726562 L 154.125 89.019531 L 179.285156 74.496094 L 179.285156 30.152344 L 47.71875 106.070312 L 47.785156 197.503906 L 154.125 136.207031 L 154.125 167.453125 L 72.949219 214.285156 L 72.949219 199.324219 L 72.882812 197.058594 L 49.417969 210.609375 L 47.71875 211.484375 L 47.785156 257.875 L 179.347656 182.007812 Z M 179.285156 92.832031 " fill-opacity="1" fill-rule="nonzero"/></g><path fill="#b6ccd7" d="M 282.128906 247.828125 L 256.925781 262.390625 L 268.308594 268.964844 L 187.132812 315.804688 L 105.910156 268.933594 L 187.113281 222.117188 L 200.3125 229.726562 L 225.5 215.195312 L 187.136719 193.027344 L 55.578125 268.933594 L 187.132812 344.910156 L 318.664062 268.984375 Z M 282.128906 247.828125 " fill-opacity="1" fill-rule="nonzero"/><g clip-path="url(#9eccf7c906)"><path fill="#e5e5e5" d="M 327.421875 168.445312 L 221.058594 107.15625 L 221.058594 73.726562 L 302.238281 120.582031 L 302.238281 135.886719 L 327.429688 150.429688 L 327.460938 106.070312 L 195.898438 30.152344 L 195.878906 121.691406 L 302.316406 183.042969 L 302.238281 214.285156 L 221.058594 167.453125 L 221.058594 150.488281 L 195.867188 136.046875 L 195.835938 182.007812 L 327.402344 257.875 Z M 327.421875 168.445312 " fill-opacity="1" fill-rule="nonzero"/></g></svg>